<svg width="112" height="19" viewBox="0 0 112 19" fill="none" xmlns="http://www.w3.org/2000/svg">
<path d="M31.7045 9.18182C31.7045 10.4508 31.464 11.5303 30.983 12.4205C30.5057 13.3106 29.8542 13.9905 29.0284 14.4602C28.2064 14.9261 27.2822 15.1591 26.2557 15.1591C25.2216 15.1591 24.2936 14.9242 23.4716 14.4545C22.6496 13.9848 22 13.3049 21.5227 12.4148C21.0455 11.5246 20.8068 10.447 20.8068 9.18182C20.8068 7.91288 21.0455 6.83333 21.5227 5.94318C22 5.05303 22.6496 4.375 23.4716 3.90909C24.2936 3.43939 25.2216 3.20455 26.2557 3.20455C27.2822 3.20455 28.2064 3.43939 29.0284 3.90909C29.8542 4.375 30.5057 5.05303 30.983 5.94318C31.464 6.83333 31.7045 7.91288 31.7045 9.18182ZM29.2102 9.18182C29.2102 8.35985 29.0871 7.66667 28.8409 7.10227C28.5985 6.53788 28.2557 6.10985 27.8125 5.81818C27.3693 5.52652 26.8504 5.38068 26.2557 5.38068C25.661 5.38068 25.142 5.52652 24.6989 5.81818C24.2557 6.10985 23.911 6.53788 23.6648 7.10227C23.4223 7.66667 23.3011 8.35985 23.3011 9.18182C23.3011 10.0038 23.4223 10.697 23.6648 11.2614C23.911 11.8258 24.2557 12.2538 24.6989 12.5455C25.142 12.8371 25.661 12.983 26.2557 12.983C26.8504 12.983 27.3693 12.8371 27.8125 12.5455C28.2557 12.2538 28.5985 11.8258 28.8409 11.2614C29.0871 10.697 29.2102 10.0038 29.2102 9.18182ZM32.5526 5.39205V3.36364H42.1094V5.39205H38.5469V15H36.1151V5.39205H32.5526ZM47.9162 15.1591C47.0677 15.1591 46.312 15.0133 45.6491 14.7216C44.9901 14.4261 44.4692 14.0208 44.0866 13.5057C43.7079 12.9867 43.5128 12.3883 43.5014 11.7102H45.9787C45.9938 11.9943 46.0866 12.2443 46.2571 12.4602C46.4313 12.6723 46.6624 12.8371 46.9503 12.9545C47.2382 13.072 47.562 13.1307 47.9219 13.1307C48.2969 13.1307 48.6283 13.0644 48.9162 12.9318C49.2041 12.7992 49.4295 12.6155 49.5923 12.3807C49.7552 12.1458 49.8366 11.875 49.8366 11.5682C49.8366 11.2576 49.7495 10.983 49.5753 10.7443C49.4048 10.5019 49.1586 10.3125 48.8366 10.1761C48.5185 10.0398 48.1397 9.97159 47.7003 9.97159H46.6151V8.16477H47.7003C48.0715 8.16477 48.3991 8.10038 48.6832 7.97159C48.9711 7.8428 49.1946 7.66477 49.3537 7.4375C49.5128 7.20644 49.5923 6.9375 49.5923 6.63068C49.5923 6.33902 49.5223 6.08333 49.3821 5.86364C49.2457 5.64015 49.0526 5.46591 48.8026 5.34091C48.5563 5.21591 48.2685 5.15341 47.9389 5.15341C47.6056 5.15341 47.3007 5.21402 47.0241 5.33523C46.7476 5.45265 46.526 5.62121 46.3594 5.84091C46.1927 6.06061 46.1037 6.31818 46.0923 6.61364H43.7344C43.7457 5.94318 43.937 5.35227 44.3082 4.84091C44.6795 4.32955 45.1795 3.92992 45.8082 3.64205C46.4408 3.35038 47.1548 3.20455 47.9503 3.20455C48.7533 3.20455 49.456 3.35038 50.0582 3.64205C50.6605 3.93371 51.1283 4.32765 51.4616 4.82386C51.7988 5.31629 51.9654 5.86932 51.9616 6.48295C51.9654 7.13447 51.7628 7.67803 51.3537 8.11364C50.9484 8.54924 50.42 8.82576 49.7685 8.94318V9.03409C50.6245 9.14394 51.276 9.44129 51.723 9.92614C52.1738 10.4072 52.3973 11.0095 52.3935 11.733C52.3973 12.3958 52.206 12.9848 51.8196 13.5C51.437 14.0152 50.9086 14.4205 50.2344 14.7159C49.5601 15.0114 48.7874 15.1591 47.9162 15.1591ZM55.8494 7.66477H58.6222C59.5464 7.66477 60.3419 7.81439 61.0085 8.11364C61.679 8.40909 62.196 8.82765 62.5597 9.36932C62.9233 9.91098 63.1032 10.5492 63.0994 11.2841C63.1032 12.0152 62.9233 12.661 62.5597 13.2216C62.196 13.7784 61.679 14.214 61.0085 14.5284C60.3419 14.8428 59.5464 15 58.6222 15H54.2756V3.36364H56.7301V13.0227H58.6222C59.0653 13.0227 59.4384 12.9432 59.7415 12.7841C60.0445 12.6212 60.2737 12.4072 60.429 12.142C60.5881 11.8731 60.6657 11.5795 60.6619 11.2614C60.6657 10.7992 60.4915 10.4091 60.1392 10.0909C59.7907 9.76894 59.285 9.60795 58.6222 9.60795H55.8494V7.66477ZM66.5028 3.36364V15H64.0483V3.36364H66.5028ZM68.527 15V3.36364H73.1861C74.0421 3.36364 74.7562 3.49053 75.3281 3.74432C75.9001 3.99811 76.33 4.35038 76.6179 4.80114C76.9058 5.24811 77.0497 5.76326 77.0497 6.34659C77.0497 6.80114 76.9588 7.20076 76.777 7.54545C76.5952 7.88636 76.3452 8.16667 76.027 8.38636C75.7126 8.60227 75.3527 8.75568 74.9474 8.84659V8.96023C75.3906 8.97917 75.8054 9.10417 76.1918 9.33523C76.5819 9.56629 76.8982 9.89015 77.1406 10.3068C77.383 10.7197 77.5043 11.2121 77.5043 11.7841C77.5043 12.4015 77.3509 12.9527 77.044 13.4375C76.741 13.9186 76.2921 14.2992 75.6974 14.5795C75.1027 14.8598 74.3698 15 73.4986 15H68.527ZM70.9872 12.9886H72.9929C73.6785 12.9886 74.1785 12.858 74.4929 12.5966C74.8073 12.3314 74.9645 11.9792 74.9645 11.5398C74.9645 11.2178 74.8868 10.9337 74.7315 10.6875C74.5762 10.4413 74.3546 10.2481 74.0668 10.108C73.7827 9.9678 73.4437 9.89773 73.0497 9.89773H70.9872V12.9886ZM70.9872 8.23295H72.8111C73.1482 8.23295 73.4474 8.17424 73.7088 8.05682C73.974 7.93561 74.1823 7.76515 74.3338 7.54545C74.4891 7.32576 74.5668 7.0625 74.5668 6.75568C74.5668 6.33523 74.4171 5.99621 74.1179 5.73864C73.8224 5.48106 73.402 5.35227 72.8565 5.35227H70.9872V8.23295ZM80.7244 7.66477H83.4972C84.4214 7.66477 85.2169 7.81439 85.8835 8.11364C86.554 8.40909 87.071 8.82765 87.4347 9.36932C87.7983 9.91098 87.9782 10.5492 87.9744 11.2841C87.9782 12.0152 87.7983 12.661 87.4347 13.2216C87.071 13.7784 86.554 14.214 85.8835 14.5284C85.2169 14.8428 84.4214 15 83.4972 15H79.1506V3.36364H81.6051V13.0227H83.4972C83.9403 13.0227 84.3134 12.9432 84.6165 12.7841C84.9195 12.6212 85.1487 12.4072 85.304 12.142C85.4631 11.8731 85.5407 11.5795 85.5369 11.2614C85.5407 10.7992 85.3665 10.4091 85.0142 10.0909C84.6657 9.76894 84.16 9.60795 83.4972 9.60795H80.7244V7.66477ZM91.3778 3.36364V15H88.9233V3.36364H91.3778Z" fill="#808080"/>
<circle cx="2.5" cy="9.5" r="2.5" fill="#808080"/>
<circle cx="109.5" cy="9.5" r="2.5" fill="#808080"/>
</svg>
